<?xml version="1.0" encoding="utf-8" ?><svg xmlns="http://www.w3.org/2000/svg" xmlns:xlink="http://www.w3.org/1999/xlink" width="1176" height="672" viewBox="0 0 1176 672"><path fill="white" transform="scale(0.875 0.875)" d="M336.958 287.835L418.309 287.677C419.178 306.528 418.372 332.048 418.35 351.278L418.422 460.532C389.15 461.401 355.322 460.694 325.723 460.707L240.346 460.663L240.284 288.091C271.584 287.346 305.466 287.868 336.958 287.835ZM263.693 400.452C263.706 409.189 263.545 418.651 263.778 427.331C284.076 427.371 298.888 432.268 308.026 410.89C311.215 406.412 315.926 402.292 321.562 402.062C345.28 401.094 370.093 401.923 393.806 401.715L393.769 374.603C376.522 374.444 351.103 373.846 334.316 374.967C315.632 380.458 321.357 397.044 306.59 399.753C297.099 401.495 274.429 400.321 263.693 400.452ZM263.642 347.712L263.755 374.614L289.078 374.584C300.032 374.645 328.065 377.097 334.268 369.302C343.773 357.357 342.538 348.86 362.124 348.664C371.746 348.568 383.609 348.799 393.779 348.809L393.731 321.595C386.136 321.437 375.165 321.103 367.742 321.779C351.188 327.643 356.971 338.507 345.633 344.616C334.257 350.745 280.565 346.401 263.642 347.712Z"/><path fill="white" transform="scale(0.875 0.875)" d="M475.034 282.874C487.128 282.718 500.676 283.25 512.923 282.771C547.446 281.422 588.844 282.777 591.78 327.849C592.637 341.001 588.025 351.497 578.972 361.26C600.491 379.182 604.571 402.61 590.38 426.438C571.435 450.428 544.494 447.771 517.267 447.746L474.939 447.694C474.417 394.044 474.285 336.561 475.034 282.874ZM560.477 415.376C563.964 411.435 565.947 408.216 566.336 402.984C568.366 375.715 540.934 375.998 521.501 376.68C516.778 376.846 511.365 376.746 506.629 376.783C506.761 391.66 506.804 406.538 506.759 421.415C520.98 421.384 550.679 424.081 560.477 415.376ZM506.707 348.432C520.136 348.529 544.113 351.267 554.857 343.341C561.74 334.844 561.935 320.653 553.325 313.929C543.487 306.247 519.248 308.58 506.664 308.671C506.654 321.541 506.346 335.666 506.707 348.432Z"/><path fill="white" transform="scale(0.875 0.875)" d="M894.584 282.848C904.277 282.554 914.917 282.771 924.681 282.796C925.391 300.441 924.706 322.181 924.714 340.121L924.831 447.755L895.224 447.808L895.162 435.694C891.292 439.343 886.876 442.366 882.074 444.654C868.08 451.408 852.789 451.124 838.398 446.099C788.172 424.302 795.343 333.085 853.494 328.462C870.007 327.149 882.471 331.521 895.06 341.837L894.584 282.848ZM870.642 424.645C878.56 422.465 886.439 418.047 890.133 410.421C901.632 386.683 892.737 350.765 860.855 353.342C855.321 354.579 851.456 355.955 847.003 359.698C830.93 373.209 830.915 409.309 849.471 420.826C856.353 425.097 862.774 425.281 870.642 424.645Z"/><path fill="white" transform="scale(0.875 0.875)" d="M994.668 328.475C1010.15 326.294 1029.77 333.202 1040.3 344.588C1055.21 360.71 1057.23 379.729 1056.66 400.72C1029.41 400.646 998.724 399.958 971.725 400.836C980.508 432.413 1014.23 431.872 1034.2 410.4L1042.48 416.173C1047.29 419.415 1052.3 422.684 1056.85 426.256C1036.9 452.811 988.53 458.299 962.996 437.041C950.271 426.722 944.106 412.472 942.506 396.375C938.958 360.697 957.82 332.02 994.668 328.475ZM972.634 376.123C983.82 376.275 995.008 376.311 1006.2 376.231L1026 376.223C1020.68 359.376 1011.81 351.703 993.769 353.34C981.484 357.093 975.843 363.555 972.634 376.123Z"/><path fill="white" transform="scale(0.875 0.875)" d="M730.084 328.416C755.394 324.989 780.781 336.417 786.255 363.261C789.059 377.014 788.353 389.975 788.388 403.904C788.453 418.509 788.437 433.114 788.339 447.719C778.655 447.847 768.969 447.838 759.286 447.69C757.923 446.515 758.917 445.835 758.177 442.945C755.284 442.985 749.859 446.878 747.109 447.723C737.004 450.829 722.413 451.543 712.346 448.436C702.121 445.28 697.595 440.406 692.908 431.827C687.759 417.765 688.53 398.566 699.605 387.553C713.947 373.29 739.181 374.127 757.918 374.021C757.596 370.647 757.101 367.004 755.753 363.886C753.671 359.012 749.713 355.182 744.772 353.264C732.253 348.398 718.666 354.016 713.951 366.805C706.968 363.372 699.92 360.073 692.811 356.91C699.432 337.566 710.82 331.297 730.084 328.416ZM728.133 429.319C740.555 428.397 749.5 423.411 758.394 414.97L758.446 392.844C754.701 392.74 750.277 392.488 746.6 392.815C737.02 393.497 724.896 394.438 718.391 402.322C709.407 413.212 714.001 427.041 728.133 429.319Z"/><path fill="white" transform="scale(0.875 0.875)" d="M678.004 327.732C679.199 327.623 679.632 327.796 680.773 328.067C682.708 331.431 681.848 347.715 681.766 352.919C666.85 353.794 655.853 361.019 647.07 372.711L647.09 447.865C637.101 447.948 626.946 447.826 616.942 447.798L616.92 438.687L617.01 330.438C627.027 330.231 637.046 330.202 647.063 330.35L647.039 344.238C657.366 334.355 663.525 330.123 678.004 327.732Z"/><path fill="white" transform="scale(0.875 0.875)" d="M1086.6 280.379C1094.09 280.093 1102.39 280.269 1109.93 280.272C1110.03 291.079 1109.83 301.912 1109.92 312.713C1110.17 341.89 1106.79 370.79 1104.96 399.914C1104.84 401.88 1104.99 403.337 1103.91 404.915C1100.99 406.646 1096.46 405.897 1092.75 405.765C1091.04 383.078 1088.04 359.015 1086.89 336.58C1086.03 319.647 1086.42 297.488 1086.6 280.379Z"/><path fill="white" transform="scale(0.875 0.875)" d="M1086.61 423.593C1094.04 423.45 1101.78 423.512 1109.23 423.477C1109.32 431.726 1109.3 439.976 1109.16 448.224L1086.59 448.259C1086.5 440.037 1086.51 431.815 1086.61 423.593Z"/></svg>